<svg xmlns="http://www.w3.org/2000/svg" xmlns:xlink="http://www.w3.org/1999/xlink" width="306" height="79.859" viewBox="0 0 306 79.859"><defs><filter id="a" x="109" y="17.859" width="197" height="62" filterUnits="userSpaceOnUse"><feOffset dy="3" input="SourceAlpha"/><feGaussianBlur stdDeviation="3" result="b"/><feFlood flood-opacity="0.161"/><feComposite operator="in" in2="b"/><feComposite in="SourceGraphic"/></filter></defs><g transform="translate(-96 -34.141)"><g transform="translate(96.002 32.14)"><path d="M76.241,31.6A29.9,29.9,0,0,0,18.3,25.021a19.932,19.932,0,0,0,1.641,39.8H76.42a16.61,16.61,0,0,0-.179-33.22Z" transform="translate(0 16.901)" fill="#003248"/><path d="M62.869,53.628A23.294,23.294,0,0,0,48.085,42.493,36.556,36.556,0,0,0,5.982,15.9a26.59,26.59,0,0,1,49.113,6.046,16.61,16.61,0,0,1,7.774,31.686Z" transform="translate(33.776 0)" fill="#003248"/></g><g transform="matrix(1, 0, 0, 1, 96, 34.14)" filter="url(#a)"><text transform="translate(118 59.86)" fill="#5d7c8e" font-size="33" font-weight="Bold" font-family="SegoeUIBlack, Segoe UI"><tspan x="0" y="0">MAWINGU</tspan></text></g></g></svg>